<?xml version="1.0" standalone="no"?><!DOCTYPE svg PUBLIC "-//W3C//DTD SVG 1.1//EN" "http://www.w3.org/Graphics/SVG/1.1/DTD/svg11.dtd"><svg t="1738936883151" class="icon" viewBox="0 0 1320 1024" version="1.1" xmlns="http://www.w3.org/2000/svg" p-id="30460" xmlns:xlink="http://www.w3.org/1999/xlink" width="257.8125" height="200"><path d="M651.6736 789.94432c36.68992 0 64.58368-16.09728 83.6608-48.27136 16.14848-27.8016 24.95488-64.36864 24.95488-111.18592 0-46.80704-8.8064-83.37408-24.95488-111.17568C716.25728 487.12704 688.36352 471.04 651.6736 471.04s-64.58368 16.08704-83.6608 48.27136C551.86432 547.1232 543.05792 583.68 543.05792 630.48704c0 46.81728 8.8064 83.38432 24.95488 111.18592 19.07712 32.17408 46.97088 48.27136 83.6608 48.27136z m-58.70592-245.76c11.73504-29.25568 32.28672-43.88864 60.17024-43.88864 27.89376 0 46.97088 14.63296 60.18048 43.88864 8.8064 20.48 13.2096 49.73568 13.2096 84.84864 0 35.10272-4.4032 64.3584-13.2096 84.8384C701.57312 743.12704 681.03168 757.76 653.13792 757.76c-27.88352 0-46.96064-14.63296-60.17024-43.88864-8.8064-20.48-13.2096-49.73568-13.2096-84.8384 0-35.11296 4.4032-62.90432 13.2096-84.84864zM406.55872 784.0768H440.32v-70.21568h51.37408v-29.25568h-49.90976V476.88704h-33.75104L252.44672 680.2432v33.6384h155.58656v70.21568h-1.47456zM281.8048 684.61568L405.0944 522.24h1.46432v162.37568H281.8048z m114.4832-552.96a29.3888 29.3888 0 0 0-29.35808 29.25568 29.3888 29.3888 0 0 0 29.35808 29.25568 29.3888 29.3888 0 0 0 29.35808-29.25568 29.3888 29.3888 0 0 0-29.35808-29.25568zM1262.25408 0H58.70592C26.4192 0 0 26.32704 0 58.51136v906.97728C0 997.67296 26.4192 1024 58.70592 1024h1203.54816c32.28672 0 58.70592-26.32704 58.70592-58.51136V58.51136C1320.96 26.32704 1294.5408 0 1262.25408 0z m0 936.23296a29.3888 29.3888 0 0 1-29.35808 29.25568H88.064a29.3888 29.3888 0 0 1-29.35808-29.25568V277.94432h1203.54816v658.28864z m0-687.54432H58.70592V87.7568A29.3888 29.3888 0 0 1 88.064 58.51136h1144.832a29.3888 29.3888 0 0 1 29.35808 29.25568v160.9216zM176.128 131.65568a29.3888 29.3888 0 0 0-29.34784 29.25568 29.3888 29.3888 0 0 0 29.34784 29.25568 29.3888 29.3888 0 0 0 29.35808-29.25568 29.3888 29.3888 0 0 0-29.35808-29.25568z m102.74816 0a29.3888 29.3888 0 0 0-29.35808 29.25568 29.3888 29.3888 0 0 0 29.35808 29.25568 29.3888 29.3888 0 0 0 29.34784-29.25568 29.3888 29.3888 0 0 0-29.34784-29.25568zM968.704 784.08704h33.76128v-70.21568h49.89952v-29.25568h-49.89952V476.88704H968.704L813.12768 680.2432v33.6384H968.704v70.21568z m-124.75392-99.47136L967.23968 522.24h1.46432v162.37568H843.95008z" fill="#4254B2" p-id="30461"></path></svg>